#!OML:ASF F:\twosubjects\two\wednesday\Session 1\rory1.ASF
:FULLY-SPECIFIED
:DEGREES
245
root 12.5492 15.95 -21.8445 -330.9 60.3324 34.737
lowerback 11.8078 -4.213 -9.30015
upperback 2.51176 -6.70352 -2.21427
thorax -3.14117 -3.21479 3.77412
lowerneck 5.99335 -15.1164 -19.4702
upperneck -8.25708 -20.7699 26.9321
head 1.78996 -10.8778 10.702
rclavicle 5.86415e-014 -1.90833e-014
rhumerus -27.6168 29.0066 -41.3304
rradius 61.1919
rwrist -25.5582
rhand -16.678 32.0856
rfingers 7.12502
rthumb 9.54599 2.3218
lclavicle 5.86415e-014 -1.90833e-014
lhumerus -59.8792 15.5562 37.5499
lradius 26.1878
lwrist 6.90873
lhand -26.7558 19.0474
lfingers 7.12502
lthumb -0.184223 49.0271
rfemur -47.3222 -3.94987 17.6623
rtibia 48.6745
rfoot -8.55932 -24.7294
rtoes 41.1549
lfemur -6.6069 17.1336 -22.578
ltibia 65.8956
lfoot -3.19308 -2.64876
ltoes -33.9461
246
root 12.7166 15.9264 -21.7238 -335.304 58.9261 30.3237
lowerback 12.0791 -4.04916 -8.24489
upperback 2.4668 -6.38646 -1.81077
thorax -3.44973 -3.05675 3.61392
lowerneck 5.61257 -15.2515 -19.8868
upperneck -7.78711 -21.0252 27.2266
head 2.13294 -10.9688 10.7549
rclavicle -3.91606e-014 5.56597e-015
rhumerus -26.8219 29.8855 -40.3407
rradius 61.2879
rwrist -24.561
rhand -16.2842 32.3512
rfingers 7.12502
rthumb 9.92597 2.6052
lclavicle -3.91606e-014 5.56597e-015
lhumerus -60.3507 15.0948 38.0398
lradius 26.1858
lwrist 7.9915
lhand -26.4776 19.4596
lfingers 7.12502
lthumb 0.0844814 49.4393
rfemur -46.9433 -3.92938 20.2784
rtibia 49.4746
rfoot -7.79855 -21.0002
rtoes 43.0767
lfemur -7.85167 18.2442 -20.2357
ltibia 68.9249
lfoot 2.83874 -2.791
ltoes -30.1041
247
root 12.9016 15.909 -21.6063 -338.226 57.3214 27.8768
lowerback 12.2884 -3.95443 -7.77726
upperback 2.67448 -6.20453 -1.69591
thorax -3.40407 -2.97812 3.46418
lowerneck 5.40624 -15.3236 -19.9354
upperneck -7.92634 -21.082 27.4691
head 2.1828 -10.9937 10.813
rclavicle -2.78299e-015 2.14687e-014
rhumerus -25.7454 30.6672 -39.1565
rradius 61.4898
rwrist -24.0345
rhand -15.673 32.4309
rfingers 7.12502
rthumb 10.5156 2.71397
lclavicle -2.78299e-015 2.14687e-014
lhumerus -60.6816 16.3294 37.3947
lradius 25.7306
lwrist 7.4016
lhand -26.6757 19.4865
lfingers 7.12502
lthumb -0.10691 49.4663
rfemur -46.0677 -4.39424 21.8582
rtibia 50.1668
rfoot -7.6257 -19.0037
rtoes 44.5386
lfemur -8.63034 18.8471 -18.8577
ltibia 71.7631
lfoot 8.16597 -3.56268
ltoes -28.7972
248
root 13.0859 15.9004 -21.4902 -340.683 55.5908 26.0274
lowerback 12.5319 -3.86185 -7.36232
upperback 2.89754 -6.03726 -1.72341
thorax -3.36766 -2.90414 3.19766
lowerneck 5.34111 -15.5564 -19.6338
upperneck -8.01379 -21.3578 27.3478
head 2.18093 -11.1322 10.6791
rclavicle 4.8901e-014 1.98785e-014
rhumerus -24.5322 31.5382 -37.9133
rradius 61.6747
rwrist -23.7008
rhand -14.6652 32.0548
rfingers 7.12502
rthumb 11.4876 2.38954
lclavicle 4.8901e-014 1.98785e-014
lhumerus -61.2381 17.9267 36.0045
lradius 25.2591
lwrist 6.41246
lhand -26.8816 18.745
lfingers 7.12502
lthumb -0.305771 48.7245
rfemur -45.0142 -4.64389 22.9683
rtibia 51.0073
rfoot -8.48359 -18.1174
rtoes 44.8144
lfemur -9.27584 19.2145 -17.8167
ltibia 74.4551
lfoot 12.391 -4.1914
ltoes -27.0701
249
root 13.2492 15.8819 -21.3608 -343.41 53.9301 23.7534
lowerback 12.6798 -3.73361 -6.85676
upperback 3.17283 -5.79263 -1.58599
thorax -3.22057 -2.79804 3.03069
lowerneck 5.55273 -15.786 -19.4642
upperneck -8.35771 -21.6414 27.3838
head 2.09995 -11.3025 10.6499
rclavicle 1.1291e-013 9.54166e-015
rhumerus -23.1143 32.3957 -36.4619
rradius 61.8992
rwrist -24.0577
rhand -12.6177 31.6839
rfingers 7.12502
rthumb 13.4617 2.13889
lclavicle 1.1291e-013 9.54166e-015
lhumerus -61.6371 18.7131 35.27
lradius 24.9949
lwrist 6.19868
lhand -26.8684 18.3144
lfingers 7.12502
lthumb -0.293001 48.294
rfemur -43.9029 -4.45453 24.4163
rtibia 51.953
rfoot -9.71154 -16.5182
rtoes 44.7851
lfemur -10.0893 19.5086 -16.1861
ltibia 77.3336
lfoot 14.9937 -4.04179
ltoes -21.8277
250
root 13.4078 15.8512 -21.2293 -345.512 52.441 22.329
lowerback 12.9128 -3.66623 -6.59117
upperback 3.44972 -5.67147 -1.65717
thorax -3.10169 -2.74726 2.80028
lowerneck 6.49599 -15.8404 -19.4356
upperneck -9.43475 -21.6787 28.0086
head 1.7398 -11.4375 10.9765
rclavicle 1.98785e-015 -7.15625e-015
rhumerus -21.9737 32.871 -35.2358
rradius 62.4769
rwrist -25.4112
rhand -9.48808 31.7598
rfingers 7.12502
rthumb 16.4766 2.43949
lclavicle 1.98785e-015 -7.15625e-015
lhumerus -61.6054 18.5867 35.1316
lradius 24.7993
lwrist 6.69483
lhand -26.9779 18.65
lfingers 7.12502
lthumb -0.398772 48.6294
rfemur -42.6884 -4.49471 25.4421
rtibia 53.0251
rfoot -10.8721 -14.361
rtoes 45.3941
lfemur -10.8927 19.4419 -14.8532
ltibia 80.4949
lfoot 15.4798 -3.58385
ltoes -18.5326
251
root 13.5677 15.8132 -21.1129 -346.872 50.8189 21.9779
lowerback 13.3849 -3.58928 -6.68125
upperback 3.58449 -5.62273 -2.01802
thorax -3.24926 -2.71585 2.4989
lowerneck 7.79788 -15.8338 -19.4862
upperneck -10.3834 -21.7025 28.831
head 1.393 -11.5974 11.4219
rclavicle 1.21259e-014 -3.18055e-015
rhumerus -21.2457 34.1869 -34.4874
rradius 62.6071
rwrist -24.462
rhand -11.3972 31.646
rfingers 7.12502
rthumb 14.6378 2.18267
lclavicle 1.21259e-014 -3.18055e-015
lhumerus -61.4638 17.8997 34.9786
lradius 24.6127
lwrist 7.32807
lhand -27.0646 19.3954
lfingers 7.12502
lthumb -0.482458 49.3746
rfemur -41.4336 -4.59706 25.6524
rtibia 54.1595
rfoot -11.828 -12.6772
rtoes 44.6974
lfemur -11.7056 19.2443 -14.3419
ltibia 83.929
lfoot 14.1875 -3.44281
ltoes -19.4443
252
root 13.7143 15.7661 -21.0131 -347.986 48.8119 21.782
lowerback 13.8701 -3.4114 -6.85605
upperback 3.64763 -5.46239 -2.38578
thorax -3.48019 -2.62512 2.22318
lowerneck 8.46696 -16.1102 -19.3209
upperneck -10.7577 -22.1014 29.1167
head 1.29512 -11.8708 11.5098
rclavicle 5.52621e-014 -3.49861e-014
rhumerus -19.7315 35.2518 -33.3284
rradius 62.4629
rwrist -24.3568
rhand -11.4378 31.5654
rfingers 7.12502
rthumb 14.5987 2.09923
lclavicle 5.52621e-014 -3.49861e-014
lhumerus -61.4556 17.9685 34.0661
lradius 24.2316
lwrist 6.91361
lhand -26.8114 19.7537
lfingers 7.12502
lthumb -0.2379 49.7333
rfemur -40.4329 -4.29573 25.6545
rtibia 55.2518
rfoot -12.6176 -11.2825
rtoes 44.503
lfemur -12.9295 19.309 -14.1331
ltibia 87.5659
lfoot 12.2415 -3.60058
ltoes -19.5233
253
root 13.8491 15.7288 -20.9224 -348.985 46.5965 21.3563
lowerback 14.1933 -3.19351 -6.84038
upperback 3.66168 -5.21567 -2.70703
thorax -3.69404 -2.49446 1.86533
lowerneck 8.8086 -16.4827 -19.0172
upperneck -11.0328 -22.5875 29.1374
head 1.24248 -12.1549 11.4387
rclavicle 2.54444e-014 -4.77083e-015
rhumerus -17.9619 35.7695 -32.1141
rradius 62.3008
rwrist -24.2553
rhand -10.2542 31.0257
rfingers 7.12502
rthumb 15.7388 1.64561
lclavicle 2.54444e-014 -4.77083e-015
lhumerus -61.4997 18.9512 32.3084
lradius 23.5956
lwrist 5.47196
lhand -26.4373 19.3773
lfingers 7.12502
lthumb 0.123357 49.357
rfemur -39.6579 -3.37288 25.741
rtibia 56.1191
rfoot -13.4279 -10.3201
rtoes 44.1388
lfemur -14.7235 19.6775 -13.8728
ltibia 91.2154
lfoot 10.3126 -3.27138
ltoes -22.7691
254
root 13.9811 15.7143 -20.8193 -350.173 44.3842 20.5386
lowerback 14.3591 -2.98519 -6.52717
upperback 3.75495 -4.91741 -2.94866
thorax -3.75809 -2.34828 1.40182
lowerneck 8.7409 -16.806 -18.7525
upperneck -11.0288 -23.0023 29.1201
head 1.31629 -12.365 11.3143
rclavicle 4.25399e-014 -3.18055e-015
rhumerus -16.3698 35.8413 -30.8958
rradius 62.3949
rwrist -24.3305
rhand -8.09205 30.416
rfingers 7.12502
rthumb 17.8203 1.21254
lclavicle 4.25399e-014 -3.18055e-015
lhumerus -61.3087 19.9106 30.7804
lradius 23.0506
lwrist 4.23406
lhand -26.0706 18.8828
lfingers 7.12502
lthumb 0.477593 48.862
rfemur -38.664 -1.95264 26.1239
rtibia 56.6401
rfoot -14.0929 -9.80481
rtoes 43.6268
lfemur -16.5955 20.1914 -13.087
ltibia 94.7217
lfoot 8.92993 -2.80647
ltoes -27.5057
255
root 14.1198 15.723 -20.6925 -351.716 42.3099 19.6581
lowerback 14.4495 -2.82445 -6.15002
upperback 4.16197 -4.63504 -3.10157
thorax -3.43965 -2.22504 0.979906
lowerneck 8.13836 -17.0786 -18.696
upperneck -10.7801 -23.348 29.1777
head 1.56868 -12.494 11.1771
rclavicle -4.55217e-014 -3.10104e-014
rhumerus -14.5195 35.8865 -29.4477
rradius 62.3618
rwrist -24.1785
rhand -6.86593 30.2252
rfingers 7.12502
rthumb 18.9998 1.13322
lclavicle -4.55217e-014 -3.10104e-014
lhumerus -60.7943 20.3642 30.4177
lradius 22.8076
lwrist 3.95881
lhand -26.2698 19.1562
lfingers 7.12502
lthumb 0.285117 49.1358
rfemur -36.9286 -0.593611 26.6389
rtibia 56.8253
rfoot -14.6413 -9.39228
rtoes 43.0371
lfemur -17.7653 20.374 -11.9033
ltibia 97.8546
lfoot 7.81675 -1.52521
ltoes -27.08
